#Comment line ignore any data following # character 
#Hierarchical Translation and Rotation (.htr) file 
[Header]	
#Header keywords are followed by a single value 
FileType HTR		#Single word string
DataType HTRS		#Translation followed by rotation and scale data
FileVersion 1		#integer
NumSegments 84		#integer
NumFrames 2		#integer
DataFrameRate 30		#integer, data frame rate in this file
EulerRotationOrder ZYX
CalibrationUnits mm
RotationUnits Degrees
GlobalAxisofGravity Y
BoneLengthAxis Y
ScaleFactor 1.00
[SegmentNames&Hierarchy]
#CHILD	PARENT
MASTER GLOBAL
root MASTER
chest root
L_mid_tent01 root
R_mid_tent01 root
spine01 root
Bip01_Neck chest
L_humerus chest
R_humerus chest
weapon_bone chest
Bip01_Head Bip01_Neck
eye_left_bone Bip01_Head
eye_right_bone Bip01_Head
L_forearm L_humerus
L_front_hand L_forearm
L_weapon_bone L_forearm
L_front_hand01_01 L_front_hand
L_front_hand02_01 L_front_hand
L_front_hand03_01 L_front_hand
L_front_hand01_02 L_front_hand01_01
L_front_hand02_02 L_front_hand02_01
L_front_hand03_02 L_front_hand03_01
R_forearm R_humerus
R_front_hand R_forearm
R_weapon_bone R_forearm
R_front_hand01_01 R_front_hand
R_front_hand02_01 R_front_hand
R_front_hand03_01 R_front_hand
R_front_hand01_02 R_front_hand01_01
R_front_hand02_02 R_front_hand02_01
R_front_hand03_02 R_front_hand03_01
null_rope01_connect L_mid_tent01
Rope1_Seg01 null_rope01_connect
Rope1_Seg02 Rope1_Seg01
Rope1_Seg03 Rope1_Seg02
Rope1_Seg04 Rope1_Seg03
Rope1_Seg05 Rope1_Seg04
Rope1_Seg06 Rope1_Seg05
Rope1_Seg07 Rope1_Seg06
Rope1_Seg09 Rope1_Seg07
L_mid_hand01 Rope1_Seg09
L_mid_hand02 Rope1_Seg09
L_mid_hand03 Rope1_Seg09
null_rope02_connect R_mid_tent01
Rope2_Seg01 null_rope02_connect
Rope2_Seg02 Rope2_Seg01
Rope2_Seg03 Rope2_Seg02
Rope2_Seg04 Rope2_Seg03
Rope2_Seg05 Rope2_Seg04
Rope2_Seg06 Rope2_Seg05
Rope2_Seg07 Rope2_Seg06
Rope2_Seg09 Rope2_Seg07
R_mid_hand01 Rope2_Seg09
R_mid_hand02 Rope2_Seg09
R_mid_hand03 Rope2_Seg09
spine02 spine01
spine03 spine02
pelvis spine03
null_rope03_connect pelvis
null_rope04_connect pelvis
Rope3_Seg01 null_rope03_connect
Rope3_Seg02 Rope3_Seg01
Rope3_Seg03 Rope3_Seg02
Rope3_Seg04 Rope3_Seg03
Rope3_Seg05 Rope3_Seg04
Rope3_Seg06 Rope3_Seg05
Rope3_Seg07 Rope3_Seg06
Rope3_Seg08 Rope3_Seg07
Rope3_Seg09 Rope3_Seg08
R_rear_hand01 Rope3_Seg09
R_rear_hand02 Rope3_Seg09
R_rear_hand03 Rope3_Seg09
Rope4_Seg01 null_rope04_connect
Rope4_Seg02 Rope4_Seg01
Rope4_Seg03 Rope4_Seg02
Rope4_Seg04 Rope4_Seg03
Rope4_Seg05 Rope4_Seg04
Rope4_Seg06 Rope4_Seg05
Rope4_Seg07 Rope4_Seg06
Rope4_Seg08 Rope4_Seg07
Rope4_Seg09 Rope4_Seg08
L_rear_hand01 Rope4_Seg09
L_rear_hand02 Rope4_Seg09
L_rear_hand03 Rope4_Seg09
[BasePosition]
#SegmentName Tx, Ty, Tz, Rx, Ry, Rz, BoneLength
MASTER 0.000000 0.000000 0.000000 -90.000000 0.000000 0.000000 10.000000 
root 0.000000 0.000000 0.000000 0.000000 0.000000 0.000000 10.000000 
chest 0.000000 0.000000 0.000000 0.000000 0.000000 0.000000 10.000000 
L_mid_tent01 0.000000 0.000000 0.000000 0.000000 0.000000 0.000000 10.000000 
R_mid_tent01 0.000000 0.000000 0.000000 0.000000 0.000000 0.000000 10.000000 
spine01 0.000000 0.000000 0.000000 0.000000 0.000000 0.000000 10.000000 
Bip01_Neck 0.000000 0.000000 0.000000 0.000000 0.000000 0.000000 10.000000 
L_humerus 0.000000 0.000000 0.000000 0.000000 0.000000 0.000000 10.000000 
R_humerus 0.000000 0.000000 0.000000 0.000000 0.000000 0.000000 10.000000 
weapon_bone 0.000000 0.000000 0.000000 0.000000 0.000000 0.000000 10.000000 
Bip01_Head 0.000000 0.000000 0.000000 0.000000 0.000000 0.000000 10.000000 
eye_left_bone 0.000000 0.000000 0.000000 0.000000 0.000000 0.000000 10.000000 
eye_right_bone 0.000000 0.000000 0.000000 0.000000 0.000000 0.000000 10.000000 
L_forearm 0.000000 0.000000 0.000000 0.000000 0.000000 0.000000 10.000000 
L_front_hand 0.000000 0.000000 0.000000 0.000000 0.000000 0.000000 10.000000 
L_weapon_bone 0.000000 0.000000 0.000000 0.000000 0.000000 0.000000 10.000000 
L_front_hand01_01 0.000000 0.000000 0.000000 0.000000 0.000000 0.000000 10.000000 
L_front_hand02_01 0.000000 0.000000 0.000000 0.000000 0.000000 0.000000 10.000000 
L_front_hand03_01 0.000000 0.000000 0.000000 0.000000 0.000000 0.000000 10.000000 
L_front_hand01_02 0.000000 0.000000 0.000000 0.000000 0.000000 0.000000 10.000000 
L_front_hand02_02 0.000000 0.000000 0.000000 0.000000 0.000000 0.000000 10.000000 
L_front_hand03_02 0.000000 0.000000 0.000000 0.000000 0.000000 0.000000 10.000000 
R_forearm 0.000000 0.000000 0.000000 0.000000 0.000000 0.000000 10.000000 
R_front_hand 0.000000 0.000000 0.000000 0.000000 0.000000 0.000000 10.000000 
R_weapon_bone 0.000000 0.000000 0.000000 0.000000 0.000000 0.000000 10.000000 
R_front_hand01_01 0.000000 0.000000 0.000000 0.000000 0.000000 0.000000 10.000000 
R_front_hand02_01 0.000000 0.000000 0.000000 0.000000 0.000000 0.000000 10.000000 
R_front_hand03_01 0.000000 0.000000 0.000000 0.000000 0.000000 0.000000 10.000000 
R_front_hand01_02 0.000000 0.000000 0.000000 0.000000 0.000000 0.000000 10.000000 
R_front_hand02_02 0.000000 0.000000 0.000000 0.000000 0.000000 0.000000 10.000000 
R_front_hand03_02 0.000000 0.000000 0.000000 0.000000 0.000000 0.000000 10.000000 
null_rope01_connect 0.000000 0.000000 0.000000 0.000000 0.000000 0.000000 10.000000 
Rope1_Seg01 0.000000 0.000000 0.000000 0.000000 0.000000 0.000000 10.000000 
Rope1_Seg02 0.000000 0.000000 0.000000 0.000000 0.000000 0.000000 10.000000 
Rope1_Seg03 0.000000 0.000000 0.000000 0.000000 0.000000 0.000000 10.000000 
Rope1_Seg04 0.000000 0.000000 0.000000 0.000000 0.000000 0.000000 10.000000 
Rope1_Seg05 0.000000 0.000000 0.000000 0.000000 0.000000 0.000000 10.000000 
Rope1_Seg06 0.000000 0.000000 0.000000 0.000000 0.000000 0.000000 10.000000 
Rope1_Seg07 0.000000 0.000000 0.000000 0.000000 0.000000 0.000000 10.000000 
Rope1_Seg09 0.000000 0.000000 0.000000 0.000000 0.000000 0.000000 10.000000 
L_mid_hand01 0.000000 0.000000 0.000000 0.000000 0.000000 0.000000 10.000000 
L_mid_hand02 0.000000 0.000000 0.000000 0.000000 0.000000 0.000000 10.000000 
L_mid_hand03 0.000000 0.000000 0.000000 0.000000 0.000000 0.000000 10.000000 
null_rope02_connect 0.000000 0.000000 0.000000 0.000000 0.000000 0.000000 10.000000 
Rope2_Seg01 0.000000 0.000000 0.000000 0.000000 0.000000 0.000000 10.000000 
Rope2_Seg02 0.000000 0.000000 0.000000 0.000000 0.000000 0.000000 10.000000 
Rope2_Seg03 0.000000 0.000000 0.000000 0.000000 0.000000 0.000000 10.000000 
Rope2_Seg04 0.000000 0.000000 0.000000 0.000000 0.000000 0.000000 10.000000 
Rope2_Seg05 0.000000 0.000000 0.000000 0.000000 0.000000 0.000000 10.000000 
Rope2_Seg06 0.000000 0.000000 0.000000 0.000000 0.000000 0.000000 10.000000 
Rope2_Seg07 0.000000 0.000000 0.000000 0.000000 0.000000 0.000000 10.000000 
Rope2_Seg09 0.000000 0.000000 0.000000 0.000000 0.000000 0.000000 10.000000 
R_mid_hand01 0.000000 0.000000 0.000000 0.000000 0.000000 0.000000 10.000000 
R_mid_hand02 0.000000 0.000000 0.000000 0.000000 0.000000 0.000000 10.000000 
R_mid_hand03 0.000000 0.000000 0.000000 0.000000 0.000000 0.000000 10.000000 
spine02 0.000000 0.000000 0.000000 0.000000 0.000000 0.000000 10.000000 
spine03 0.000000 0.000000 0.000000 0.000000 0.000000 0.000000 10.000000 
pelvis 0.000000 0.000000 0.000000 0.000000 0.000000 0.000000 10.000000 
null_rope03_connect 0.000000 0.000000 0.000000 0.000000 0.000000 0.000000 10.000000 
null_rope04_connect 0.000000 0.000000 0.000000 0.000000 0.000000 0.000000 10.000000 
Rope3_Seg01 0.000000 0.000000 0.000000 0.000000 0.000000 0.000000 10.000000 
Rope3_Seg02 0.000000 0.000000 0.000000 0.000000 0.000000 0.000000 10.000000 
Rope3_Seg03 0.000000 0.000000 0.000000 0.000000 0.000000 0.000000 10.000000 
Rope3_Seg04 0.000000 0.000000 0.000000 0.000000 0.000000 0.000000 10.000000 
Rope3_Seg05 0.000000 0.000000 0.000000 0.000000 0.000000 0.000000 10.000000 
Rope3_Seg06 0.000000 0.000000 0.000000 0.000000 0.000000 0.000000 10.000000 
Rope3_Seg07 0.000000 0.000000 0.000000 0.000000 0.000000 0.000000 10.000000 
Rope3_Seg08 0.000000 0.000000 0.000000 0.000000 0.000000 0.000000 10.000000 
Rope3_Seg09 0.000000 0.000000 0.000000 0.000000 0.000000 0.000000 10.000000 
R_rear_hand01 0.000000 0.000000 0.000000 0.000000 0.000000 0.000000 10.000000 
R_rear_hand02 0.000000 0.000000 0.000000 0.000000 0.000000 0.000000 10.000000 
R_rear_hand03 0.000000 0.000000 0.000000 0.000000 0.000000 0.000000 10.000000 
Rope4_Seg01 0.000000 0.000000 0.000000 0.000000 0.000000 0.000000 10.000000 
Rope4_Seg02 0.000000 0.000000 0.000000 0.000000 0.000000 0.000000 10.000000 
Rope4_Seg03 0.000000 0.000000 0.000000 0.000000 0.000000 0.000000 10.000000 
Rope4_Seg04 0.000000 0.000000 0.000000 0.000000 0.000000 0.000000 10.000000 
Rope4_Seg05 0.000000 0.000000 0.000000 0.000000 0.000000 0.000000 10.000000 
Rope4_Seg06 0.000000 0.000000 0.000000 0.000000 0.000000 0.000000 10.000000 
Rope4_Seg07 0.000000 0.000000 0.000000 0.000000 0.000000 0.000000 10.000000 
Rope4_Seg08 0.000000 0.000000 0.000000 0.000000 0.000000 0.000000 10.000000 
Rope4_Seg09 0.000000 0.000000 0.000000 0.000000 0.000000 0.000000 10.000000 
L_rear_hand01 0.000000 0.000000 0.000000 0.000000 0.000000 0.000000 10.000000 
L_rear_hand02 0.000000 0.000000 0.000000 0.000000 0.000000 0.000000 10.000000 
L_rear_hand03 0.000000 0.000000 0.000000 0.000000 0.000000 0.000000 10.000000 
#Beginning of Data. Separated by tabs
#Fr	Tx	Ty	Tz	Rx	Ry	Rz	SF
[MASTER]
22 0.000000 0.000000 0.000000 0.001660 0.001660 0.001660 0.000000
23 0.000000 0.000000 0.000000 0.001660 0.001660 0.001660 0.000000
[root]
22 -37.849987 20.670767 1416.224487 -91.728889 -11.584499 -89.471611 1416.880981
23 -37.729046 20.331217 1420.983154 -91.728897 -11.584496 -89.471619 1421.629395
[chest]
22 -84.512650 -34.090519 0.000000 -2.170494 -0.006436 168.239609 91.129311
23 -84.512650 -34.090519 0.000000 -2.170494 -0.006436 168.239609 91.129311
[L_mid_tent01]
22 27.299511 22.177458 -249.918259 -20.661396 12.026044 12.983024 252.381134
23 27.299511 22.177458 -249.918259 -20.661392 12.026043 12.983022 252.381134
[R_mid_tent01]
22 23.228794 24.509907 226.238495 -165.192200 -17.956036 24.056787 228.744751
23 23.228794 24.509907 226.238495 -165.192200 -17.956036 24.056787 228.744751
[spine01]
22 -0.361383 -0.195265 0.000000 -0.000001 -0.000007 22.052340 0.410763
23 -0.361383 -0.195265 0.000000 -0.000001 -0.000007 22.052340 0.410763
[Bip01_Neck]
22 165.484543 71.581718 0.000119 175.896118 1.177290 24.871183 180.302734
23 165.484543 71.581718 0.000119 175.896118 1.177290 24.871183 180.302734
[L_humerus]
22 -13.983130 -135.272980 -120.471481 -5.480129 68.873367 84.573456 181.680161
23 -13.983130 -135.272980 -120.471481 -5.480129 68.873367 84.573456 181.680161
[R_humerus]
22 -13.983309 -135.273102 125.287651 27.897165 -69.888802 67.752319 184.909012
23 -13.983309 -135.273102 125.287651 27.897165 -69.888802 67.752319 184.909012
[weapon_bone]
22 235.964890 -300.705902 0.000000 0.000000 -89.951546 -128.212341 382.234833
23 235.964890 -300.705902 0.000000 0.000000 -89.951546 -128.212341 382.234833
[Bip01_Head]
22 193.865707 99.525291 7.890739 1.727521 4.534425 -43.429157 218.062973
23 193.865707 99.525291 7.890739 1.727521 4.534425 -43.429153 218.062973
[eye_left_bone]
22 -24.626970 125.451866 -64.772606 0.000000 -90.000000 -99.840431 143.318359
23 -24.626970 125.451866 -64.772606 0.000000 -90.000000 -99.840431 143.318359
[eye_right_bone]
22 -24.626970 125.451866 64.327362 0.000000 -89.965736 80.156380 143.117676
23 -24.626970 125.451866 64.327362 0.000000 -89.965736 80.156380 143.117676
[L_forearm]
22 322.776093 0.000000 -0.000119 0.000396 -0.002314 -109.419975 322.776093
23 322.776093 0.000000 -0.000119 0.000396 -0.002314 -109.419975 322.776093
[L_front_hand]
22 241.149185 -0.042021 -3.300071 -179.659958 -2.242151 -0.019832 241.171753
23 241.149185 -0.042021 -3.300071 -179.659958 -2.242151 -0.019832 241.171753
[L_weapon_bone]
22 156.183838 0.000000 0.000000 0.000014 0.000007 0.000001 156.183838
23 156.183838 0.000000 0.000000 0.000014 0.000007 0.000001 156.183838
[L_front_hand01_01]
22 86.095154 20.947098 -0.655860 -0.366594 -0.477154 75.385574 88.609184
23 86.095154 20.947098 -0.655860 -0.366594 -0.477154 75.385574 88.609184
[L_front_hand02_01]
22 86.935165 -11.437475 24.513514 154.399796 -59.883835 -61.369587 91.046425
23 86.935165 -11.437475 24.513514 154.399796 -59.883835 -61.369587 91.046425
[L_front_hand03_01]
22 86.637497 -14.123976 -20.424902 -153.913879 58.118130 -62.702892 90.126129
23 86.637497 -14.123976 -20.424902 -153.913849 58.118130 -62.702866 90.126129
[L_front_hand01_02]
22 71.020905 -0.000179 0.000030 0.000334 -0.002323 -106.379684 71.020905
23 71.020905 -0.000179 0.000030 0.000334 -0.002323 -106.379684 71.020905
[L_front_hand02_02]
22 71.020927 -0.000119 0.000060 0.000334 -0.002323 -106.379684 71.020927
23 71.020927 -0.000119 0.000060 0.000334 -0.002323 -106.379684 71.020927
[L_front_hand03_02]
22 71.020905 -0.000060 0.000060 0.000334 -0.002323 -106.379684 71.020905
23 71.020905 -0.000060 0.000060 0.000334 -0.002323 -106.379684 71.020905
[R_forearm]
22 322.776428 -0.000060 0.000030 0.202103 0.065158 -108.062820 322.776428
23 322.776428 -0.000060 0.000030 0.202103 0.065158 -108.062805 322.776428
[R_front_hand]
22 238.847015 -0.006795 2.210259 -0.270529 1.703932 2.322530 238.857239
23 238.847015 -0.006795 2.210259 -0.270529 1.703932 2.322530 238.857239
[R_weapon_bone]
22 155.664093 0.002503 -0.000030 0.003487 0.001180 -90.988930 155.664078
23 155.664093 0.002503 -0.000030 0.003487 0.001180 -90.988930 155.664078
[R_front_hand01_01]
22 87.624611 14.231146 22.918642 -154.633499 -59.950619 61.746044 91.683487
23 87.624611 14.231146 22.918642 -154.633499 -59.950619 61.746044 91.683487
[R_front_hand02_01]
22 89.356956 14.367283 -19.491137 154.602661 58.302849 63.744389 92.579636
23 89.356956 14.367283 -19.491137 154.602661 58.302849 63.744389 92.579636
[R_front_hand03_01]
22 87.286232 -22.307278 -0.143439 0.162155 -0.423168 -75.767921 90.091743
23 87.286232 -22.307278 -0.143439 0.162155 -0.423168 -75.767921 90.091743
[R_front_hand01_02]
22 71.020905 0.000060 0.000119 0.002323 -0.000334 106.381714 71.020905
23 71.020905 0.000060 0.000119 0.002323 -0.000334 106.381714 71.020905
[R_front_hand02_02]
22 71.020844 -0.000030 -0.000119 0.002323 -0.000334 106.381714 71.020836
23 71.020844 -0.000030 -0.000119 0.002323 -0.000334 106.381714 71.020836
[R_front_hand03_02]
22 71.020905 0.000000 0.000030 0.002323 -0.000334 106.381714 71.020905
23 71.020905 0.000000 0.000030 0.002323 -0.000334 106.381714 71.020905
[null_rope01_connect]
22 328.732483 0.000000 -0.000238 -154.483337 -64.791321 -118.914307 328.732483
23 328.732483 0.000000 -0.000238 -154.483337 -64.791298 -118.914307 328.732483
[Rope1_Seg01]
22 -0.000038 -0.000114 0.000109 67.897499 2.984854 -128.336899 0.000162
23 -0.000038 -0.000114 0.000109 65.732956 3.336958 -127.245209 0.000163
[Rope1_Seg02]
22 139.999863 -0.000179 0.000000 -6.284705 2.823243 0.594792 139.999863
23 139.999863 -0.000179 0.000000 -5.630072 2.505172 0.457945 139.999863
[Rope1_Seg03]
22 139.999924 0.000060 -0.000060 -6.724544 2.779897 0.651046 139.999924
23 139.999924 0.000060 -0.000060 -5.814662 2.458677 0.401817 139.999924
[Rope1_Seg04]
22 139.999924 -0.000060 -0.000119 -5.463860 2.567261 -0.091143 139.999924
23 139.999924 -0.000060 -0.000119 -5.307981 2.512014 -0.213844 139.999924
[Rope1_Seg05]
22 139.999832 0.000119 -0.000060 -22.921532 5.789396 7.039262 139.999832
23 139.999832 0.000119 -0.000060 -19.397749 4.401095 5.920761 139.999832
[Rope1_Seg06]
22 139.999954 0.000119 -0.000060 -9.503078 1.098950 5.545557 139.999954
23 139.999954 0.000119 -0.000060 -8.223622 0.845882 4.424547 139.999954
[Rope1_Seg07]
22 139.999985 0.000060 0.000000 -3.550638 0.232538 2.498377 139.999985
23 139.999985 0.000060 0.000000 -3.283650 0.257451 2.018006 139.999985
[Rope1_Seg09]
22 121.602913 0.000119 -0.000089 -89.793175 -1.359789 0.847147 121.602913
23 121.602913 0.000119 -0.000089 -89.793175 -1.359789 0.847147 121.602913
[L_mid_hand01]
22 103.859421 1.038730 8.195221 106.855484 -31.239275 -9.461397 104.187431
23 103.859421 1.038730 8.195221 106.855484 -31.239275 -9.461397 104.187431
[L_mid_hand02]
22 105.572853 -4.139662 -10.864139 -142.331345 25.752670 -28.774628 106.211075
23 105.572853 -4.139662 -10.864139 -142.331345 25.752670 -28.774628 106.211075
[L_mid_hand03]
22 104.641464 17.579376 -3.913581 -16.122810 9.734291 34.223598 106.179977
23 104.641464 17.579376 -3.913581 -16.122810 9.734291 34.223598 106.179977
[null_rope02_connect]
22 328.732849 0.000179 -0.000119 -140.208801 68.099228 -35.150650 328.732849
23 328.732849 0.000179 -0.000119 -140.208801 68.099228 -35.150650 328.732849
[Rope2_Seg01]
22 0.000095 0.000153 0.000053 22.879898 9.112233 -42.328388 0.000188
23 0.000095 0.000153 0.000056 35.890354 9.178326 -44.666870 0.000188
[Rope2_Seg02]
22 139.999741 -0.000060 -0.000119 30.518929 -3.930058 -5.436831 139.999756
23 139.999741 -0.000060 -0.000119 22.431892 -3.993007 -3.671357 139.999756
[Rope2_Seg03]
22 140.000107 0.000030 0.000000 -1.866969 0.387133 0.282240 140.000107
23 140.000107 0.000030 0.000000 -5.187718 1.722878 0.398932 140.000107
[Rope2_Seg04]
22 139.999802 0.000000 -0.000060 9.549151 -2.971952 -1.423247 139.999802
23 139.999802 0.000000 -0.000060 10.380419 -3.092357 -1.426882 139.999802
[Rope2_Seg05]
22 139.999985 -0.000060 0.000119 22.407564 -16.810329 -5.327809 139.999985
23 139.999985 -0.000060 0.000119 19.760469 -15.732600 -3.702711 139.999985
[Rope2_Seg06]
22 139.999893 -0.000030 -0.000119 5.519793 -15.153956 1.219994 139.999893
23 139.999893 -0.000030 -0.000119 4.757598 -13.012830 1.481552 139.999893
[Rope2_Seg07]
22 139.999893 0.000060 -0.000060 1.250779 -6.593488 1.192956 139.999893
23 139.999893 0.000060 -0.000060 1.181713 -5.774945 1.150420 139.999893
[Rope2_Seg09]
22 121.338966 0.000089 -0.000060 33.793236 -1.359788 -0.847141 121.338966
23 121.338966 0.000089 -0.000060 33.793236 -1.359788 -0.847141 121.338966
[R_mid_hand01]
22 104.680779 11.144459 -10.335981 -41.523792 25.424656 28.595957 105.778534
23 104.680779 11.144459 -10.335981 -41.523792 25.424656 28.595957 105.778534
[R_mid_hand02]
22 104.070427 2.443552 8.231699 72.847389 -32.746803 10.013901 104.424065
23 104.070427 2.443552 8.231699 72.847389 -32.746803 10.013901 104.424065
[R_mid_hand03]
22 106.028137 -11.221827 -5.996406 -167.901306 10.259192 -37.009720 106.788818
23 106.028137 -11.221827 -5.996406 -167.901306 10.259192 -37.009720 106.788818
[spine02]
22 129.756927 0.001550 0.000119 0.360061 -4.044797 -12.915058 129.756927
23 129.756927 0.001550 0.000119 0.360061 -4.044797 -12.915058 129.756927
[spine03]
22 78.613846 0.087372 -4.898873 1.896495 3.831288 16.473045 78.766380
23 78.613846 0.087372 -4.898873 1.896495 3.831288 16.473045 78.766380
[pelvis]
22 169.435242 0.051022 0.000000 -0.060465 -0.180225 14.087930 169.435257
23 169.435242 0.051022 0.000000 -0.060465 -0.180225 14.087930 169.435257
[null_rope03_connect]
22 -1.257226 -2.466202 137.391083 156.329987 -89.381348 -94.430771 137.418976
23 -1.257226 -2.466202 137.391083 156.329987 -89.381348 -94.430771 137.418976
[null_rope04_connect]
22 -1.259640 -2.480268 -137.844437 156.329987 -89.381348 -94.430771 137.872513
23 -1.259640 -2.480268 -137.844437 156.329987 -89.381348 -94.430771 137.872513
[Rope3_Seg01]
22 0.000010 0.000038 -0.000114 -142.026001 25.456234 -103.452675 0.000121
23 0.000010 0.000038 -0.000114 -140.603348 24.006430 -101.765541 0.000121
[Rope3_Seg02]
22 139.999924 -0.000119 0.000060 -0.563580 -8.181908 -7.649282 139.999924
23 139.999924 -0.000119 0.000060 -0.884884 -8.253292 -6.428877 139.999924
[Rope3_Seg03]
22 139.999924 -0.000119 0.000119 0.012612 -8.014485 -7.734307 139.999924
23 139.999924 -0.000119 0.000119 -0.242226 -7.729189 -6.230833 139.999924
[Rope3_Seg04]
22 139.999924 0.000119 0.000000 0.673083 -9.760468 -9.069350 139.999924
23 139.999924 0.000119 0.000000 0.256124 -8.561783 -6.577575 139.999924
[Rope3_Seg05]
22 139.999924 -0.000238 0.000060 0.343663 -3.352488 -3.734761 139.999924
23 139.999924 -0.000238 0.000060 0.289045 -3.206661 -3.193115 139.999924
[Rope3_Seg06]
22 139.999893 -0.000119 -0.000060 0.196407 2.996923 1.392095 139.999893
23 139.999893 -0.000119 -0.000060 0.276703 1.614333 -0.137895 139.999893
[Rope3_Seg07]
22 139.999771 0.000060 -0.000119 0.384861 2.910351 1.451137 139.999771
23 139.999771 0.000060 -0.000119 0.410370 1.204095 -0.172091 139.999771
[Rope3_Seg08]
22 139.999985 -0.000060 0.000000 0.492418 0.920974 0.139151 139.999985
23 139.999985 -0.000060 0.000000 0.500593 0.127599 -0.526983 139.999985
[Rope3_Seg09]
22 90.185997 -0.000179 -0.000060 89.793228 -1.359877 -0.847183 90.185997
23 90.185997 -0.000179 -0.000060 89.793228 -1.359877 -0.847183 90.185997
[R_rear_hand01]
22 103.366196 -6.073594 -10.757982 -161.551193 16.666374 -30.088671 104.101845
23 103.366196 -6.073594 -10.757982 -161.551193 16.666374 -30.088671 104.101845
[R_rear_hand02]
22 100.509819 12.039542 -7.992327 -34.280552 19.289745 28.875523 101.543350
23 100.509819 12.039542 -7.992327 -34.280552 19.289745 28.875523 101.543350
[R_rear_hand03]
22 101.539970 5.215704 5.435467 83.366440 -30.933914 7.284830 101.819031
23 101.539970 5.215704 5.435467 83.366440 -30.933914 7.284830 101.819031
[Rope4_Seg01]
22 0.000010 0.000038 -0.000114 37.962791 24.405880 -125.352356 0.000121
23 0.000010 0.000038 -0.000114 39.215019 25.846004 -122.312859 0.000121
[Rope4_Seg02]
22 139.999985 0.000060 0.000119 0.744598 4.225813 5.361294 139.999985
23 139.999985 0.000060 0.000119 0.553747 3.137045 4.787683 139.999985
[Rope4_Seg03]
22 139.999924 0.000000 -0.000238 0.699086 6.614385 8.272822 139.999924
23 139.999924 0.000000 -0.000238 0.451339 4.741909 7.138010 139.999924
[Rope4_Seg04]
22 139.999985 0.000000 0.000119 -0.614128 15.039229 23.681904 139.999985
23 139.999985 0.000000 0.000119 -0.894792 10.005312 20.019218 139.999985
[Rope4_Seg05]
22 139.999802 -0.000060 -0.000119 -1.197908 8.799746 7.658849 139.999802
23 139.999802 -0.000060 -0.000119 -0.490207 7.761374 6.281981 139.999802
[Rope4_Seg06]
22 139.999924 0.000000 0.000060 10.925177 -5.101843 -23.258860 139.999924
23 139.999924 0.000000 0.000060 7.415871 -1.427751 -18.538979 139.999924
[Rope4_Seg07]
22 139.999802 0.000000 0.000000 2.076622 -2.235969 -7.256996 139.999802
23 139.999802 0.000000 0.000000 1.655660 -0.218131 -5.345326 139.999802
[Rope4_Seg08]
22 139.999924 0.000000 0.000119 -0.737691 -1.064959 -3.503689 139.999924
23 139.999924 0.000000 0.000119 -0.747725 -0.105707 -2.807133 139.999924
[Rope4_Seg09]
22 90.185791 0.000060 0.000060 -135.617828 2.228885 0.850567 90.185791
23 90.185791 0.000060 0.000060 -135.617828 2.228885 0.850567 90.185791
[L_rear_hand01]
22 101.696655 -8.392275 -7.654577 -34.454281 -18.946800 151.655121 102.329041
23 101.696655 -8.392275 -7.654577 -34.454281 -18.946800 151.655121 102.329041
[L_rear_hand02]
22 102.726799 -1.568258 5.773216 83.407906 30.330435 172.796509 102.900848
23 102.726799 -1.568258 5.773216 83.407906 30.330435 172.796509 102.900848
[L_rear_hand03]
22 104.552910 9.721220 -10.420293 -161.379868 -16.473232 -150.512238 105.519653
23 104.552910 9.721220 -10.420293 -161.379868 -16.473232 -150.512238 105.519653
